<svg xmlns="http://www.w3.org/2000/svg" width="64" height="64" viewBox="0 0 64 64" role="img" aria-label="Fun with Math candy icon">
  <defs>
    <linearGradient id="candy" x1="0" x2="1" y1="0" y2="1">
      <stop offset="0" stop-color="#ff8cab"/>
      <stop offset="0.5" stop-color="#ffe38a"/>
      <stop offset="1" stop-color="#83dfbf"/>
    </linearGradient>
  </defs>
  <rect width="64" height="64" rx="16" fill="#cdeffd"/>
  <path d="M18 37H7l9-8c4-4 11-1 11 5 0 2-1 4-3 5z" fill="#b9e2ff"/>
  <path d="M46 37h11l-9-8c-4-4-11-1-11 5 0 2 1 4 3 5z" fill="#b9e2ff"/>
  <rect x="18" y="20" width="28" height="24" rx="12" fill="url(#candy)" transform="rotate(-8 32 32)"/>
  <path d="M25 20c3 7 4 16 2 24M34 19c4 8 4 18 1 27M42 22c-2 7-1 15 2 22" stroke="#fff" stroke-width="4" stroke-linecap="round" opacity="0.55" transform="rotate(-8 32 32)"/>
</svg>
