<svg xmlns="http://www.w3.org/2000/svg" width="1200" height="630" viewBox="0 0 1200 630" role="img" aria-labelledby="title desc">
  <title id="title">Fun with Math</title>
  <desc id="desc">A playful candy-themed math practice app for kids.</desc>
  <defs>
    <linearGradient id="sky" x1="0" x2="0" y1="0" y2="1">
      <stop offset="0" stop-color="#cdeffd"/>
      <stop offset="0.7" stop-color="#eaf9ff"/>
      <stop offset="1" stop-color="#dff7d7"/>
    </linearGradient>
    <linearGradient id="candy" x1="0" x2="1" y1="0" y2="1">
      <stop offset="0" stop-color="#ff8cab"/>
      <stop offset="0.48" stop-color="#ffe38a"/>
      <stop offset="1" stop-color="#83dfbf"/>
    </linearGradient>
    <filter id="softShadow" x="-20%" y="-20%" width="140%" height="140%">
      <feDropShadow dx="0" dy="16" stdDeviation="10" flood-color="#293241" flood-opacity="0.18"/>
    </filter>
  </defs>
  <rect width="1200" height="630" fill="url(#sky)"/>
  <circle cx="160" cy="120" r="70" fill="#ffd86b"/>
  <circle cx="930" cy="120" r="42" fill="#ffffff" opacity="0.82"/>
  <circle cx="990" cy="120" r="58" fill="#ffffff" opacity="0.82"/>
  <path d="M0 515c170-60 330-54 480-8s292 52 430 6 222-42 290-10v127H0z" fill="#8edc93"/>
  <path d="M0 555c220-56 393-40 535-7 142 34 266 41 390 5 117-34 202-35 275-8v85H0z" fill="#60bd7a" opacity="0.48"/>
  <rect x="92" y="74" width="1016" height="482" rx="54" fill="#fffaf0" opacity="0.96" filter="url(#softShadow)"/>
  <g transform="translate(185 220)">
    <path d="M87 62h-62l42-31c14-10 34 0 34 18 0 7-3 13-8 17z" fill="#b9e2ff"/>
    <path d="M253 62h62l-42-31c-14-10-34 0-34 18 0 7 3 13 8 17z" fill="#b9e2ff"/>
    <rect x="68" y="0" width="204" height="102" rx="51" fill="url(#candy)" transform="rotate(-8 170 51)"/>
    <path d="M112 8c13 22 17 52 11 82M155-2c14 30 16 70 5 105M203 3c-5 31-3 66 8 99" stroke="#fff" stroke-width="16" stroke-linecap="round" opacity="0.52" transform="rotate(-8 170 51)"/>
  </g>
  <text x="420" y="250" fill="#f46f91" font-family="Arial Rounded MT Bold, Trebuchet MS, Arial, sans-serif" font-size="94" font-weight="900">Fun with</text>
  <text x="420" y="352" fill="#293241" font-family="Arial Rounded MT Bold, Trebuchet MS, Arial, sans-serif" font-size="118" font-weight="900">Math</text>
  <text x="424" y="420" fill="#64748b" font-family="Arial Rounded MT Bold, Trebuchet MS, Arial, sans-serif" font-size="34" font-weight="800">Collect candies while practicing math.</text>
  <circle cx="948" cy="478" r="18" fill="#ff8cab"/>
  <circle cx="998" cy="450" r="18" fill="#83dfbf"/>
  <circle cx="1048" cy="478" r="18" fill="#7cc6ff"/>
</svg>
